<?xml version="1.0" encoding="utf-8"?>
<!-- Generator: Adobe Illustrator 23.1.0, SVG Export Plug-In . SVG Version: 6.00 Build 0)  -->
<svg version="1.1" id="arrow_up" xmlns="http://www.w3.org/2000/svg" xmlns:xlink="http://www.w3.org/1999/xlink" x="0px" y="0px"
	 viewBox="0 0 96 96" style="enable-background:new 0 0 96 96;" xml:space="preserve">
<style type="text/css">
	.st0{fill:#2962FF;}
</style>
<path class="st0" d="M90.4,43.3H17L42.2,18c1.8-1.8,1.8-4.8,0-6.7c-1.8-1.8-4.8-1.8-6.7,0L2.2,44.7l0,0c-0.2,0.2-0.4,0.5-0.6,0.7
	c-0.1,0.1-0.1,0.2-0.2,0.4c-0.1,0.1-0.2,0.3-0.2,0.4c-0.1,0.2-0.1,0.3-0.2,0.5c0,0.1-0.1,0.3-0.1,0.4c-0.1,0.3-0.1,0.6-0.1,0.9l0,0
	c0,0,0,0,0,0c0,0.3,0,0.6,0.1,0.9c0,0.1,0.1,0.3,0.1,0.4c0,0.2,0.1,0.3,0.1,0.5c0.1,0.2,0.2,0.3,0.2,0.5c0.1,0.1,0.1,0.2,0.2,0.3
	c0.2,0.3,0.4,0.5,0.6,0.7l33.3,33.3c1.8,1.8,4.8,1.8,6.7,0c1.8-1.8,1.8-4.8,0-6.7L17,52.7h73.5c2.6,0,4.7-2.1,4.7-4.7
	S93,43.3,90.4,43.3z"/>
</svg>
