<?xml version="1.0" encoding="utf-8"?>
<!-- Generator: Adobe Illustrator 23.1.0, SVG Export Plug-In . SVG Version: 6.00 Build 0)  -->
<svg version="1.1" id="arrow_up" xmlns="http://www.w3.org/2000/svg" xmlns:xlink="http://www.w3.org/1999/xlink" x="0px" y="0px"
	 viewBox="0 0 96 96" style="enable-background:new 0 0 96 96;" xml:space="preserve">
<style type="text/css">
	.st0{fill:#2962FF;}
	.st1{fill:#FFFFFF;}
</style>
<circle class="st0" cx="48" cy="48.6" r="47.4"/>
<path class="st1" d="M77.1,44.8H26.7L44,27.4c1.2-1.2,1.2-3.3,0-4.6c-1.2-1.2-3.3-1.2-4.6,0L16.5,45.7l0,0c-0.1,0.1-0.3,0.3-0.4,0.5
	c-0.1,0.1-0.1,0.1-0.1,0.3c-0.1,0.1-0.1,0.2-0.1,0.3c-0.1,0.1-0.1,0.2-0.1,0.3c0,0.1-0.1,0.2-0.1,0.3c-0.1,0.2-0.1,0.4-0.1,0.6l0,0
	l0,0c0,0.2,0,0.4,0.1,0.6c0,0.1,0.1,0.2,0.1,0.3c0,0.1,0.1,0.2,0.1,0.3c0.1,0.1,0.1,0.2,0.1,0.3c0.1,0.1,0.1,0.1,0.1,0.2
	c0.1,0.2,0.3,0.3,0.4,0.5l22.9,22.9c1.2,1.2,3.3,1.2,4.6,0c1.2-1.2,1.2-3.3,0-4.6L26.7,51.2h50.5c1.8,0,3.2-1.4,3.2-3.2
	C80.4,46.2,78.9,44.8,77.1,44.8z"/>
</svg>
