<?xml version="1.0" encoding="utf-8"?>
<!-- Generator: Adobe Illustrator 23.1.0, SVG Export Plug-In . SVG Version: 6.00 Build 0)  -->
<svg version="1.1" id="Слой_1" xmlns="http://www.w3.org/2000/svg" xmlns:xlink="http://www.w3.org/1999/xlink" x="0px" y="0px"
	 viewBox="0 0 1024 1024" style="enable-background:new 0 0 1024 1024;" xml:space="preserve">
<style type="text/css">
	.st0{fill:#448AFF;}
	.st1{fill:#FFFFFF;}
</style>
<circle class="st0" cx="512" cy="512" r="512"/>
<g>
	<path class="st1" d="M951.5,326.5c-60.4-77.8-187-119.9-259-58c-24.5,21.1-44.5,67-64.3,123.9C670,514.6,601.8,667.7,558,724
		c-20.9,26.9-39.9,20.5-59.1,1.4c-4,6.2-8.1,12.3-12.4,18.1c-108,147.8-239.6,84.5-270,52c-8.2-8.7-12.6-15.4-14.3-20.6
		c-28.6-20.7-53.7-46.5-74.9-75.9c-11.8-3.2-20.8-4.4-24.8-2.6c-15.8,7.4-13.7,117.1-2.3,155.5c1,3.3,5.3,3.1,6.6-0.1
		c8.7-21.3,18.7-75.3,48.7-15.3c33.4,66.8,264,197,452-8c74.1-80.8,74.9-128,144-128C962.9,700.6,1089,503.8,951.5,326.5z
		 M789.5,590.5c-41.7,7.6-87.3-13.2-76-53c0-0.1,41-123,41-123c17.2-56.3,62-59,95.2-16C940.1,515.4,841.9,581,789.5,590.5z"/>
	<path class="st1" d="M261.9,757.5c-18.8,2.9-67.3-5.6-59.7,17.4c32.2,23.3,68.7,40.1,108.8,48.1c96,19,14-242.7,97-197
		c35.4,19.5,63.5,72.3,90.9,99.4c58.9-91.9,93.7-230.3,129.4-333c-15.7-45.9-46.9-87.5-100.7-117.9C377.2,189.4,517,303,499,463
		c-8.8,78.6-157,21-119-100c9.9-31.4-111,16-120,185c-5.8,109.7-136.7-62-73.9-206.3c64.4-148.2,192.5-154.3,212.9-157.3
		c4-0.6,7.9,2.1,8.6,6.1c1.4,8.2-5.2,22-12.5,34.2c-4,6.7,3.4,14.4,10.2,10.6c45.5-25.5,130.8-76.5,128-98.8
		c-2.7-21.2-97.2-41.6-153.9-51.9c-8-1.5-12.4,9-5.7,13.7c8.6,6,16.2,12.6,19.7,18.9c2.5,4.5,0,10-5,11.1
		c-40.9,9-266.8,37.2-322.9,226.3C31.2,470,58.2,603.3,127.3,699.1c38.6,10.4,107.7,41.4,135.3,51.9
		C265.8,752.2,265.3,757,261.9,757.5z"/>
</g>
</svg>
